# xmcd
#
# Track frame offsets:
#	150
#	16163
#	35165
#	51900
#	66133
#	77924
#	94584
#	113686
#	134702
#	149749
#	164383
#	178753
#	194813
#	210096
#	226584
#	241277
#	256846
#	272437
#	283602
#	300898
#
# Disc length: 4214 seconds
#
# Revision: 1
# Processed by: cddbd v1.5.2PL0 Copyright (c) Steve Scherf et al.
# Submitted via: audiograbber 1.83.01
#
DISCID=17107414
DTITLE=VA  - Schmuse Schlager CD - 1
DYEAR=2014
DGENRE=Schlager
TTITLE0=Fantasy - Endstation Sehnsucht
TTITLE1=Roger Whittaker - Schön war die Zeit
TTITLE2=Die Flippers - Lotosblume
TTITLE3=Jürgen Drews - Ich bau dir ein Schloss - Radio Mix
TTITLE4=Nana Mouskouri - Weiße Rosen aus Athen
TTITLE5=Jan Smit - Bleiben wie du bist - Radio Version
TTITLE6=Anna-Maria Zimmermann - 1000 Träume weit (Tornero)
TTITLE7=Adoro - Halt dich an mir fest
TTITLE8=Michael Hirte - Aber dich gibt's nur einmal für mich
TTITLE9=G. G. Anderson - San Valentino
TTITLE10=Stefanie Hertel - In meinem Traum gesehen
TTITLE11=Sebastian Charelle - Du bist mein Kuschelschlager
TTITLE12=Angelika Milster - Du hast mir Glück gebracht
TTITLE13=Matthias Reim - Verdammt ich lieb Dich
TTITLE14=Cathrin Geissler - Liebe ist immer wie ein Wunder
TTITLE15=Jörg Bausch -  Ich bin in Dich
TTITLE16=Andrea Berg - Die Gefühle haben Schweigepflicht
TTITLE17=Roy Black - Du bist nicht allein
TTITLE18=Wolfgang Petry - Nichts von alledem
TTITLE19=Ein Stern (der deinen Namen trägt)  - Radio Mix
EXTD=
EXTT0=
EXTT1=
EXTT2=
EXTT3=
EXTT4=
EXTT5=
EXTT6=
EXTT7=
EXTT8=
EXTT9=
EXTT10=
EXTT11=
EXTT12=
EXTT13=
EXTT14=
EXTT15=
EXTT16=
EXTT17=
EXTT18=
EXTT19=
PLAYORDER=
